# File created by Blade
# Date/Time:  Thu Sep 25 17:54:10 2014
# Frame Rate: 120.000 fps
#------------------------------------------------------
:FULLY-SPECIFIED
:DEGREES
1607
root -0.035392 32.560440 -6.839775 24.185436 -3.212514 -0.645867
Spine -28.255445 -0.612217 1.814968
Head -22.786244 -12.165476 -4.005771
LeftShoulder 9.116530 -3.236244 42.313583
LeftArm 78.099230 12.667374 -100.186485
LeftForeArm -19.125967 -0.000000 124.024268
LeftHand -16.698340 -0.000000 -19.181513
LeftHandThumb1 -26.253704 0.000000 33.147579
RightShoulder 0.849952 38.270085 -61.614157
RightArm 92.617732 -19.510696 78.348610
RightForeArm 9.744161 -0.000000 93.558775
RightHand 10.726971 -0.000000 -1.069019
RightHandThumb1 -24.326973 -0.000000 -32.862282
LeftUpLeg -19.134374 6.633101 -0.422513
LeftLeg -0.450237 -0.000000 0.000000
LeftFoot -5.455839 0.052661 -2.027602
LeftToeBase 3.549577 -0.000000 -0.000000
RightUpLeg -19.899404 -6.185770 3.920878
RightLeg -1.172524 -0.000000 0.000000
RightFoot -6.475799 1.526297 10.959100
RightToeBase 16.578520 -0.000000 -0.000000
1608
root -0.035112 32.560465 -6.839388 24.149789 -3.149416 -0.632677
Spine -28.195467 -0.052749 1.571683
Head -22.860673 -12.683869 -3.970509
LeftShoulder 8.945103 -3.542634 42.262203
LeftArm 77.617213 12.427697 -100.379954
LeftForeArm -19.365413 -0.000000 124.509988
LeftHand -16.901459 -0.000000 -19.721743
LeftHandThumb1 -26.253704 0.000000 33.147579
RightShoulder 0.851758 38.182686 -61.740605
RightArm 93.070396 -19.456601 78.201031
RightForeArm 9.131971 0.000000 93.392140
RightHand 10.631858 0.000000 -0.535668
RightHandThumb1 -24.326973 -0.000000 -32.862282
LeftUpLeg -19.110629 6.594939 -0.414858
LeftLeg -0.441852 -0.000000 0.000000
LeftFoot -5.450764 0.028471 -2.032687
LeftToeBase 3.535505 -0.000000 -0.000000
RightUpLeg -19.851493 -6.228366 3.921475
RightLeg -1.185830 -0.000000 0.000000
RightFoot -6.494844 1.492443 10.971879
RightToeBase 16.603357 -0.000000 -0.000000
1609
root -0.035411 32.560482 -6.839665 24.132718 -3.070464 -0.631750
Spine -28.160529 0.470017 1.367380
Head -22.895725 -13.187563 -3.954813
LeftShoulder 8.771696 -3.590166 42.236925
LeftArm 77.421467 12.237592 -100.417667
LeftForeArm -19.477748 -0.000000 124.940772
LeftHand -16.964691 -0.000000 -19.938833
LeftHandThumb1 -26.253704 0.000000 33.147579
RightShoulder 0.781642 38.524822 -61.894848
RightArm 93.098893 -19.545674 78.229108
RightForeArm 8.723109 -0.000000 93.207580
RightHand 10.583695 -0.000000 -0.281620
RightHandThumb1 -24.326973 -0.000000 -32.862282
LeftUpLeg -19.112326 6.554597 -0.390836
LeftLeg -0.420937 -0.000000 0.000000
LeftFoot -5.456451 -0.015593 -2.031275
LeftToeBase 3.566609 -0.000000 -0.000000
RightUpLeg -19.816038 -6.267088 3.939097
RightLeg -1.213092 -0.000000 0.000000
RightFoot -6.486744 1.453984 10.959866
RightToeBase 16.572688 -0.000000 -0.000000
1610
root -0.034993 32.561035 -6.840674 24.116606 -3.008315 -0.630581
Spine -28.115418 0.974514 1.159337
Head -22.965867 -13.603179 -3.915459
LeftShoulder 8.500106 -3.672113 42.108841
LeftArm 77.226205 12.127914 -100.449550
LeftForeArm -19.765744 -0.000000 125.252264
LeftHand -17.253746 0.000000 -20.444581
LeftHandThumb1 -26.253704 0.000000 33.147579
RightShoulder 0.739921 38.847527 -62.022050
RightArm 93.166936 -19.606852 78.266555
RightForeArm 8.483351 -0.000000 93.022940
RightHand 10.552298 -0.000000 0.156931
RightHandThumb1 -24.326973 -0.000000 -32.862282
LeftUpLeg -19.115877 6.544069 -0.384126
LeftLeg -0.413311 -0.000000 0.000000
LeftFoot -5.388775 -0.050709 -1.874206
LeftToeBase 3.291046 -0.000000 -0.000000
RightUpLeg -19.786339 -6.277475 3.944363
RightLeg -1.236111 -0.000000 0.000000
RightFoot -6.488987 1.409386 10.963824
RightToeBase 16.615141 -0.000000 -0.000000
1611
root -0.033930 32.561430 -6.839880 24.086345 -2.919188 -0.604472
Spine -28.064755 1.473821 0.927612
Head -23.008938 -14.034387 -3.885506
LeftShoulder 8.227783 -3.893656 42.017307
LeftArm 76.904943 12.058796 -100.422999
LeftForeArm -19.503840 -0.000000 125.496845
LeftHand -17.077633 0.000000 -20.623590
LeftHandThumb1 -26.253704 0.000000 33.147579
RightShoulder 0.678646 39.138026 -62.194683
RightArm 93.220942 -19.640684 78.310232
RightForeArm 8.412973 -0.000000 92.799996
RightHand 10.626131 -0.000000 0.184137
RightHandThumb1 -24.326973 -0.000000 -32.862282
LeftUpLeg -19.102092 6.491845 -0.382622
LeftLeg -0.396564 -0.000000 0.000000
LeftFoot -5.443617 -0.136430 -2.033876
LeftToeBase 3.544044 -0.000000 -0.000000
RightUpLeg -19.737135 -6.347503 3.941378
RightLeg -1.268226 -0.000000 0.000000
RightFoot -6.443106 1.414468 11.070024
RightToeBase 16.442842 -0.000000 -0.000000
1612
root -0.032972 32.561167 -6.839862 24.068531 -2.833215 -0.592868
Spine -28.027516 1.979811 0.713490
Head -23.023438 -14.493293 -3.862217
LeftShoulder 7.957381 -3.917251 42.035404
LeftArm 76.734900 11.967854 -100.442183
LeftForeArm -19.191287 -0.000000 125.821050
LeftHand -17.117803 -0.000000 -20.779512
LeftHandThumb1 -26.253704 0.000000 33.147579
RightShoulder 0.605639 39.559191 -62.379373
RightArm 93.126076 -19.685309 78.406275
RightForeArm 8.191132 -0.000000 92.628095
RightHand 10.686223 -0.000000 0.009888
RightHandThumb1 -24.326973 -0.000000 -32.862282
LeftUpLeg -19.104364 6.464394 -0.378579
LeftLeg -0.381144 -0.000000 0.000000
LeftFoot -5.386427 -0.122548 -1.912680
LeftToeBase 3.372313 -0.000000 -0.000000
RightUpLeg -19.703803 -6.387161 3.944061
RightLeg -1.285882 -0.000000 0.000000
RightFoot -6.454578 1.369352 11.071782
RightToeBase 16.423413 -0.000000 -0.000000
1613
root -0.032593 32.561279 -6.838420 24.033962 -2.728286 -0.582505
Spine -27.988425 2.510611 0.480585
Head -22.992879 -14.991634 -3.849753
LeftShoulder 7.748511 -4.438251 41.946818
LeftArm 76.100376 11.769255 -100.539093
LeftForeArm -19.105273 -0.000000 126.073803
LeftHand -17.093020 -0.000000 -20.962401
LeftHandThumb1 -26.253704 0.000000 33.147579
RightShoulder 0.508379 40.037875 -62.601123
RightArm 92.841930 -19.757677 78.617174
RightForeArm 7.972790 -0.000000 92.513620
RightHand 10.682476 -0.000000 -0.121776
RightHandThumb1 -24.326973 -0.000000 -32.862282
LeftUpLeg -19.080312 6.420075 -0.362072
LeftLeg -0.384294 -0.000000 0.000000
LeftFoot -5.368926 -0.175519 -1.908745
LeftToeBase 3.335253 -0.000000 -0.000000
RightUpLeg -19.643256 -6.431950 3.953894
RightLeg -1.317163 -0.000000 0.000000
RightFoot -6.506408 1.273530 10.950152
RightToeBase 16.554236 -0.000000 -0.000000
1614
root -0.032295 32.561520 -6.837536 24.028766 -2.632388 -0.575394
Spine -27.976311 3.025801 0.261016
Head -22.963257 -15.444358 -3.840686
LeftShoulder 7.452187 -4.628811 41.859951
LeftArm 75.800342 11.685853 -100.549205
LeftForeArm -18.907179 -0.000000 126.240041
LeftHand -17.136062 0.000000 -21.208867
LeftHandThumb1 -26.253704 0.000000 33.147579
RightShoulder 0.500860 40.094728 -62.806533
RightArm 93.022008 -19.684808 78.687552
RightForeArm 7.729547 -0.000000 92.485536
RightHand 10.584970 -0.000000 -0.125988
RightHandThumb1 -24.326973 -0.000000 -32.862282
LeftUpLeg -19.087192 6.404760 -0.355071
LeftLeg -0.388282 -0.000000 0.000000
LeftFoot -5.353464 -0.293644 -1.912989
LeftToeBase 3.302132 -0.000000 -0.000000
RightUpLeg -19.617676 -6.431107 3.949326
RightLeg -1.336398 -0.000000 0.000000
RightFoot -6.515911 1.192608 10.977390
RightToeBase 16.520510 -0.000000 -0.000000
1615
root -0.032940 32.562000 -6.836337 24.011463 -2.526259 -0.566762
Spine -27.955140 3.534474 0.030030
Head -22.924349 -15.910293 -3.817225
LeftShoulder 7.180305 -4.725704 41.778641
LeftArm 75.607386 11.600972 -100.496488
LeftForeArm -18.560607 -0.000000 126.453317
LeftHand -17.340345 0.000000 -21.453499
LeftHandThumb1 -26.253704 0.000000 33.147579
RightShoulder 0.460772 40.208068 -62.940432
RightArm 93.219402 -19.642336 78.782268
RightForeArm 7.349381 0.000000 92.430051
RightHand 10.646368 0.000000 0.241500
RightHandThumb1 -24.326973 -0.000000 -32.862282
LeftUpLeg -19.079266 6.387751 -0.341348
LeftLeg -0.386031 -0.000000 0.000000
LeftFoot -5.410015 -0.392259 -2.088812
LeftToeBase 3.651860 -0.000000 -0.000000
RightUpLeg -19.571812 -6.449734 3.953720
RightLeg -1.371339 -0.000000 0.000000
RightFoot -6.536138 1.105789 10.975498
RightToeBase 16.512109 -0.000000 -0.000000
1616
root -0.032650 32.562092 -6.834111 23.987145 -2.406092 -0.547646
Spine -27.931315 4.041509 -0.219560
Head -22.888255 -16.400197 -3.796845
LeftShoulder 6.930655 -4.751556 41.674641
LeftArm 75.537454 11.558019 -100.338547
LeftForeArm -18.221311 0.000000 126.605995
LeftHand -17.307792 -0.000000 -21.626231
LeftHandThumb1 -26.253704 0.000000 33.147579
RightShoulder 0.364729 40.323439 -63.114645
RightArm 93.304556 -19.634267 78.925244
RightForeArm 6.817557 0.000000 92.413286
RightHand 10.381382 -0.000000 0.043421
RightHandThumb1 -24.326973 -0.000000 -32.862282
LeftUpLeg -19.060490 6.356912 -0.341225
LeftLeg -0.406687 -0.000000 0.000000
LeftFoot -5.316740 -0.441531 -1.944790
LeftToeBase 3.375274 -0.000000 -0.000000
RightUpLeg -19.507074 -6.450986 3.936015
RightLeg -1.424668 -0.000000 0.000000
RightFoot -6.540883 0.986183 11.020017
RightToeBase 16.500697 -0.000000 -0.000000
1617
root -0.032591 32.562679 -6.832384 23.952947 -2.277234 -0.535012
Spine -27.892109 4.558352 -0.468255
Head -22.858211 -16.885678 -3.790167
LeftShoulder 6.698534 -4.752870 41.642591
LeftArm 75.435939 11.490668 -100.293568
LeftForeArm -18.046093 -0.000000 126.787757
LeftHand -17.373310 -0.000000 -21.870680
LeftHandThumb1 -26.253704 0.000000 33.147579
RightShoulder 0.248923 40.528243 -63.267027
RightArm 93.337395 -19.628662 79.082639
RightForeArm 6.420684 -0.000000 92.381454
RightHand 9.987173 -0.000000 0.361657
RightHandThumb1 -24.326973 -0.000000 -32.862282
LeftUpLeg -19.035545 6.349685 -0.338131
LeftLeg -0.422880 -0.000000 0.000000
LeftFoot -5.287715 -0.550284 -1.922607
LeftToeBase 3.396604 -0.000000 -0.000000
RightUpLeg -19.444937 -6.487772 3.940280
RightLeg -1.456754 -0.000000 0.000000
RightFoot -6.556386 0.888348 10.952549
RightToeBase 16.465474 -0.000000 -0.000000
